<mxfile host="app.diagrams.net" modified="2020-12-16T13:59:33.757Z" agent="5.0 (Macintosh; Intel Mac OS X 11_1_0) AppleWebKit/537.36 (KHTML, like Gecko) Chrome/87.0.4280.88 Safari/537.36" etag="r2ukAuDPVRfk1smwgPq2" version="13.10.3" type="github">
  <diagram id="mMQZLcOGUUK79jENvC2j" name="Page-1">
    <mxGraphModel dx="1703" dy="951" grid="1" gridSize="10" guides="1" tooltips="1" connect="1" arrows="1" fold="1" page="1" pageScale="1" pageWidth="827" pageHeight="1169" math="0" shadow="0">
      <root>
        <mxCell id="0" />
        <mxCell id="1" parent="0" />
        <mxCell id="ESzsK0nAiScqzoTbCCdf-11" style="edgeStyle=orthogonalEdgeStyle;rounded=0;orthogonalLoop=1;jettySize=auto;html=1;exitX=0.5;exitY=0;exitDx=0;exitDy=0;entryX=0.5;entryY=1;entryDx=0;entryDy=0;" edge="1" parent="1" source="ESzsK0nAiScqzoTbCCdf-1" target="ESzsK0nAiScqzoTbCCdf-2">
          <mxGeometry relative="1" as="geometry" />
        </mxCell>
        <mxCell id="ESzsK0nAiScqzoTbCCdf-12" style="edgeStyle=orthogonalEdgeStyle;rounded=0;orthogonalLoop=1;jettySize=auto;html=1;exitX=0.25;exitY=0;exitDx=0;exitDy=0;entryX=0.5;entryY=1;entryDx=0;entryDy=0;" edge="1" parent="1" source="ESzsK0nAiScqzoTbCCdf-1" target="ESzsK0nAiScqzoTbCCdf-3">
          <mxGeometry relative="1" as="geometry">
            <Array as="points">
              <mxPoint x="114" y="560" />
            </Array>
          </mxGeometry>
        </mxCell>
        <mxCell id="ESzsK0nAiScqzoTbCCdf-15" style="edgeStyle=orthogonalEdgeStyle;rounded=0;orthogonalLoop=1;jettySize=auto;html=1;exitX=0.75;exitY=0;exitDx=0;exitDy=0;entryX=0.5;entryY=1;entryDx=0;entryDy=0;" edge="1" parent="1" source="ESzsK0nAiScqzoTbCCdf-1" target="ESzsK0nAiScqzoTbCCdf-4">
          <mxGeometry relative="1" as="geometry">
            <Array as="points">
              <mxPoint x="414" y="560" />
            </Array>
          </mxGeometry>
        </mxCell>
        <mxCell id="ESzsK0nAiScqzoTbCCdf-1" value="" style="rounded=1;whiteSpace=wrap;html=1;" vertex="1" parent="1">
          <mxGeometry x="54" y="560" width="426" height="160" as="geometry" />
        </mxCell>
        <mxCell id="ESzsK0nAiScqzoTbCCdf-2" value="checkacceptancetrace" style="rounded=1;whiteSpace=wrap;html=1;" vertex="1" parent="1">
          <mxGeometry x="207" y="450" width="120" height="60" as="geometry" />
        </mxCell>
        <mxCell id="ESzsK0nAiScqzoTbCCdf-3" value="rmc-operator" style="rounded=1;whiteSpace=wrap;html=1;" vertex="1" parent="1">
          <mxGeometry x="54" y="450" width="120" height="60" as="geometry" />
        </mxCell>
        <mxCell id="ESzsK0nAiScqzoTbCCdf-4" value="irlab" style="rounded=1;whiteSpace=wrap;html=1;" vertex="1" parent="1">
          <mxGeometry x="354" y="450" width="120" height="60" as="geometry" />
        </mxCell>
        <mxCell id="ESzsK0nAiScqzoTbCCdf-5" value="riskmodelcentermeta" style="rounded=1;whiteSpace=wrap;html=1;" vertex="1" parent="1">
          <mxGeometry x="360" y="160" width="120" height="60" as="geometry" />
        </mxCell>
        <mxCell id="ESzsK0nAiScqzoTbCCdf-14" value="" style="rounded=0;whiteSpace=wrap;html=1;" vertex="1" parent="1">
          <mxGeometry x="54" y="280" width="116" height="30" as="geometry" />
        </mxCell>
        <mxCell id="ESzsK0nAiScqzoTbCCdf-16" value="基础元数据+拓扑" style="text;html=1;align=center;verticalAlign=middle;resizable=0;points=[];autosize=1;" vertex="1" parent="1">
          <mxGeometry x="105" y="530" width="110" height="20" as="geometry" />
        </mxCell>
        <mxCell id="ESzsK0nAiScqzoTbCCdf-17" value="Trace+实时拓扑" style="text;html=1;align=center;verticalAlign=middle;resizable=0;points=[];autosize=1;" vertex="1" parent="1">
          <mxGeometry x="270" y="530" width="100" height="20" as="geometry" />
        </mxCell>
        <mxCell id="ESzsK0nAiScqzoTbCCdf-18" value="指标+异常算法" style="text;html=1;align=center;verticalAlign=middle;resizable=0;points=[];autosize=1;" vertex="1" parent="1">
          <mxGeometry x="430" y="530" width="90" height="20" as="geometry" />
        </mxCell>
        <mxCell id="ESzsK0nAiScqzoTbCCdf-19" value="riskmodelcenter-pontus" style="rounded=1;whiteSpace=wrap;html=1;" vertex="1" parent="1">
          <mxGeometry x="630" y="450" width="170" height="60" as="geometry" />
        </mxCell>
        <mxCell id="ESzsK0nAiScqzoTbCCdf-20" value="线上环境" style="text;html=1;align=center;verticalAlign=middle;resizable=0;points=[];autosize=1;" vertex="1" parent="1">
          <mxGeometry x="384" y="574.5" width="60" height="20" as="geometry" />
        </mxCell>
        <mxCell id="ESzsK0nAiScqzoTbCCdf-21" value="Graph&amp;nbsp; &amp;nbsp;性能拓扑" style="text;html=1;align=center;verticalAlign=middle;resizable=0;points=[];autosize=1;" vertex="1" parent="1">
          <mxGeometry x="620" y="260" width="110" height="20" as="geometry" />
        </mxCell>
        <mxCell id="ESzsK0nAiScqzoTbCCdf-22" value="Conclusion&amp;nbsp; &amp;nbsp;异常识别&amp;amp;定位" style="text;html=1;align=center;verticalAlign=middle;resizable=0;points=[];autosize=1;" vertex="1" parent="1">
          <mxGeometry x="620" y="310" width="160" height="20" as="geometry" />
        </mxCell>
        <mxCell id="ESzsK0nAiScqzoTbCCdf-23" value="Decision&amp;nbsp; 自愈止血决策" style="text;html=1;align=center;verticalAlign=middle;resizable=0;points=[];autosize=1;" vertex="1" parent="1">
          <mxGeometry x="620" y="360" width="140" height="20" as="geometry" />
        </mxCell>
      </root>
    </mxGraphModel>
  </diagram>
</mxfile>
